<?xml version="1.0" standalone="no"?>
<!DOCTYPE svg PUBLIC "-//W3C//DTD SVG 20010904//EN"
 "http://www.w3.org/TR/2001/REC-SVG-20010904/DTD/svg10.dtd">
<svg version="1.0" xmlns="http://www.w3.org/2000/svg"
 width="554.000000pt" height="554.000000pt" viewBox="0 0 554.000000 554.000000"
 preserveAspectRatio="xMidYMid meet">

<g transform="translate(0.000000,554.000000) scale(0.100000,-0.100000)"
fill="#000000" stroke="none">
<path d="M4870 3985 c-102 -53 -253 -130 -335 -172 l-151 -76 4 -487 4 -488
-43 9 c-93 18 -109 13 -210 -57 -120 -84 -160 -104 -204 -104 -31 0 -40 -6
-78 -57 -23 -31 -58 -73 -77 -94 -33 -36 -38 -38 -78 -32 l-43 6 5 71 c14 178
23 853 12 864 -2 1 -46 -19 -97 -46 -52 -27 -249 -129 -439 -227 -190 -98
-353 -185 -364 -194 -16 -14 -17 -25 -12 -86 4 -38 6 -634 6 -1324 0 -1160 1
-1255 16 -1272 18 -20 44 -25 60 -10 5 4 131 70 279 146 149 76 311 159 360
185 50 26 198 103 330 170 132 67 281 144 330 170 50 26 185 96 300 155 116
59 246 127 290 150 44 23 144 75 222 115 78 40 152 84 165 97 l23 25 3 1298 2
1299 -22 25 c-43 47 -58 44 -258 -59z"/>
<path d="M595 1997 l-49 -44 29 -14 30 -14 3 -151 3 -150 45 -22 c24 -12 49
-22 54 -22 6 0 10 56 10 140 0 77 3 140 6 140 3 0 14 -5 26 -11 11 -6 22 -9
24 -6 8 8 -103 192 -117 195 -8 1 -36 -17 -64 -41z"/>
<path d="M880 1859 l-64 -41 37 -19 37 -19 0 -150 0 -150 50 -25 c28 -14 55
-23 60 -20 6 4 10 65 10 141 0 136 6 154 38 122 6 -6 14 -9 17 -7 5 5 -107
209 -115 209 -3 0 -34 -19 -70 -41z"/>
<path d="M1173 1739 c8 -89 69 -209 142 -278 l55 -52 0 -105 0 -105 -30 16
c-41 21 -77 19 -91 -6 -8 -17 -8 -24 3 -34 22 -20 349 -187 355 -181 3 3 -5
27 -18 53 -19 36 -37 54 -72 73 l-47 25 0 105 0 105 59 -3 c53 -3 62 -1 93 27
33 29 58 84 58 129 0 15 -17 31 -61 57 -34 20 -63 34 -66 31 -2 -2 5 -27 17
-54 l22 -50 -22 -30 c-13 -17 -31 -32 -41 -35 -16 -4 -16 -2 3 38 l21 43 -23
57 c-27 66 -34 71 -229 169 l-134 68 6 -63z"/>
<path d="M552 1559 l3 -41 250 -129 c138 -70 253 -129 258 -129 4 0 7 18 7 39
l0 40 -172 87 c-95 47 -210 106 -254 130 -45 24 -85 44 -88 44 -4 0 -6 -18 -4
-41z"/>
</g>
</svg>
